<svg width="20" height="20" viewBox="0 0 20 20" fill="none" xmlns="http://www.w3.org/2000/svg">
<path d="M7.1875 2.5H12.8125V0.9375C12.8125 0.429688 13.2031 0 13.75 0C14.2578 0 14.6875 0.429688 14.6875 0.9375V2.5H16.25C17.6172 2.5 18.75 3.63281 18.75 5V17.5C18.75 18.9062 17.6172 20 16.25 20H3.75C2.34375 20 1.25 18.9062 1.25 17.5V5C1.25 3.63281 2.34375 2.5 3.75 2.5H5.3125V0.9375C5.3125 0.429688 5.70312 0 6.25 0C6.75781 0 7.1875 0.429688 7.1875 0.9375V2.5ZM3.125 17.5C3.125 17.8516 3.39844 18.125 3.75 18.125H16.25C16.5625 18.125 16.875 17.8516 16.875 17.5V7.5H3.125V17.5Z" fill="#666666"/>
</svg>
